PathFileType	4	(X/Y/Z)	47_1_3_p0_0-401.trc
DataRate	CameraRate	NumFrames	NumMarkers	Units	OrigDataRate	OrigDataStartFrame	OrigNumFrames
59.0	59.0	6	27	m	59.0	50	402
Frame#	Time	RHip			RKnee			RAnkle			RBigToe			RSmallToe			RHeel			LHip			LKnee			LAnkle			LBigToe			LSmallToe			LHeel			Neck			Head			Nose			RShoulder			RElbow			RWrist			RThumb			RIndex			RPinky			LShoulder			LElbow			LWrist			LThumb			LIndex			LPinky			
		X1	Y1	Z1	X2	Y2	Z2	X3	Y3	Z3	X4	Y4	Z4	X5	Y5	Z5	X6	Y6	Z6	X7	Y7	Z7	X8	Y8	Z8	X9	Y9	Z9	X10	Y10	Z10	X11	Y11	Z11	X12	Y12	Z12	X13	Y13	Z13	X14	Y14	Z14	X15	Y15	Z15	X16	Y16	Z16	X17	Y17	Z17	X18	Y18	Z18	X19	Y19	Z19	X20	Y20	Z20	X21	Y21	Z21	X22	Y22	Z22	X23	Y23	Z23	X24	Y24	Z24	X25	Y25	Z25	X26	Y26	Z26	X27	Y27	Z27	
50	0.847457627118644	0.3530361222213416	0.4257046722574179	-0.19933553615205482	0.3440656801322266	0.6646697749291741	0.21153975099121053	0.32288308665872667	0.870485733912059	0.5609077108228123	0.3443769933808837	0.7395108133252952	0.640166841479678	0.4046159631828418	0.7496877009227058	0.6321834381252123	0.264278209400341	0.9924897298921703	0.5970767908123534	0.16149633131870242	0.37046715143212244	-0.1537130761773672	0.14167431783166248	0.6064553869919382	0.22459873436922015	0.13150968282111833	0.8300492869772091	0.5815160082992515	0.20893919231844899	0.6488541822337458	0.6507433648322558	0.13329387248600122	0.7164563512360556	0.6596301133847718	0.13353564971682308	0.9104855484648233	0.6154072473098446	0.2849136324417035	0.12062170524968392	-0.6606230529166146	0.3171174512782257	-0.05011712039154685	-0.8518363133602241	0.32222332334160486	-0.05761320302841037	-0.7044888128797955	0.41665142167906366	0.19502195347463716	-0.5876514993283491	0.43334307178489806	0.2858688697602886	-0.37436867452897055	0.37036561728654827	0.27169672046360843	-0.13345561158161243	0.3149435390179815	0.27852494794050875	-0.028709753938540746	0.308160434823533	0.28813935455018447	-0.026074484179629816	0.3044284859982791	0.2869551565566746	-0.02500265434800926	0.13804798451345351	0.1438498492211633	-0.563552527271116	0.13620348910581068	0.2138243811765496	-0.32272791399189615	0.2585122002815399	0.26512693917665664	-0.12061131997058898	0.34336309178068875	0.2622877064308705	-0.04649371393380907	0.33410812281546065	0.2850321437073409	-0.033723907534507505	0.29935092883025033	0.28912970362179413	-0.023182697373217175
51	0.864406779661017	0.3531149019528241	0.42557375060799657	-0.19922866692080557	0.34100905058114706	0.6467147337831666	0.21400372834745549	0.32395460779811014	0.8680103715378675	0.5569373833239266	0.34143754495101114	0.7211884650652521	0.640385677424892	0.4046237561918222	0.7492341996268055	0.6322989643158353	0.26557809698249735	0.9896072414913535	0.5926875050261392	0.1615309828886528	0.3672026998343976	-0.157409530496545	0.1417411605026747	0.6062136566937384	0.22456379355803485	0.13146157194543268	0.8303584657306513	0.5814854391620916	0.19993739098539462	0.6633298723150063	0.6524806222439468	0.13420523113693436	0.714658978478238	0.6557857319534857	0.12305581759126616	0.9408374156457523	0.6118836778377649	0.27669844750315004	0.13099906454363658	-0.6649734315122966	0.3171351132133137	-0.0501372030813786	-0.8518028075566276	0.32215992594942017	-0.05758965211283521	-0.7044481837483424	0.4134797833417354	0.19268325199164643	-0.586566801052513	0.4336023502078347	0.2886322373342473	-0.3712651894199451	0.3704854793246978	0.27501775605346024	-0.1303283357738342	0.3151693545228055	0.2820051685819161	-0.024917503263084704	0.3084559238764506	0.2913665166612733	-0.0223659872963631	0.3049415118770061	0.29003069518563884	-0.021355501034715053	0.13802056825398573	0.14391459574878335	-0.5636155118554569	0.13473124560920666	0.22601126838137509	-0.3265298391865449	0.2583826963565111	0.26262693464726433	-0.12350934996778977	0.3430457555311501	0.2625123929475817	-0.04650068955311085	0.3338865364068884	0.2850054883573296	-0.03369177128393288	0.2990191670055	0.2866174999033234	-0.026307274998979842
52	0.8813559322033898	0.3525930072314804	0.4273090766530876	-0.19536014799992868	0.34363976439108607	0.6523190514127207	0.21715055805240582	0.32405636009743455	0.8679070337595871	0.557023759180548	0.344596111118855	0.7431594112322476	0.6435217984844934	0.40498394930251636	0.7525418292963124	0.6359344759178699	0.2644483537895998	0.9922112225956884	0.5973085710672756	0.16097103765758092	0.3687056640644456	-0.15425917576082787	0.1512294046410329	0.5927117722344162	0.2252030998773823	0.13146602606873684	0.8302744187432849	0.5815539851858392	0.19994482424354248	0.6636364690521425	0.6524895803607188	0.13435566718943726	0.7143650497454366	0.6557568441348184	0.12428056864540432	0.9261346408272626	0.6120713976056159	0.27667702805984323	0.13100884051211073	-0.6649658819055105	0.3171282478579595	-0.050113257531640754	-0.8518475650902343	0.3221754132653157	-0.05750946443010748	-0.7044871647360658	0.4137192061244891	0.1939004020431575	-0.5835989191924427	0.43336680131435046	0.28582708736918955	-0.374322244252956	0.37833199229337316	0.26007049273182486	-0.13131284714782074	0.3151739143789053	0.2820204857567594	-0.0248504617348599	0.30832198458164206	0.2880018672967813	-0.026021396229468616	0.30520481922236536	0.289619936582884	-0.021161383093526876	0.13801773233881226	0.14387225562537456	-0.5635841161475659	0.1348464730782952	0.22582613251474531	-0.326416935960984	0.2669013656418031	0.2505741100783428	-0.1213429433440188	0.3440352682443315	0.2630737628366998	-0.042946078835217644	0.3418956568471288	0.2736779191300374	-0.032199051276452506	0.29963914074481135	0.2888454651186489	-0.02301499174360507
53	0.8983050847457628	0.353045732436915	0.4257685558848435	-0.19900440656828522	0.34452226472002945	0.6499796130623227	0.21309125645990343	0.3243260125158121	0.867299913294705	0.5567653057650916	0.3443963438177833	0.7395789883203018	0.6399236185950606	0.4048234806533076	0.7494832027495968	0.631844039780508	0.26508223967543304	0.9856541543968697	0.5879708419548726	0.16150732050468256	0.3672694914586154	-0.1574135453406145	0.1417106491564587	0.6061491281772717	0.22459402042685267	0.13145667235881248	0.8301127348545336	0.5815933027215177	0.21043037557812505	0.6346182237710225	0.650440731142003	0.1350735958692728	0.7013907108286418	0.6592901747505053	0.12302639364475317	0.9289077738984837	0.6170782452703791	0.2766390430650801	0.1334903051494783	-0.6617770875948321	0.31709890510949273	-0.05165603574292484	-0.8548027930932537	0.32216717213397145	-0.05753157689678409	-0.7044313948990415	0.42133941223965937	0.18299966531174996	-0.5795345806451228	0.4408774849684192	0.27440127562078387	-0.3711949747559225	0.37039394346611504	0.2719727963513841	-0.13352225698810766	0.3155197514411592	0.29476254111285033	-0.02753889267526866	0.3106774314137209	0.29050641598979704	-0.026698993355938706	0.3053039563811565	0.2873508443528377	-0.02168150127322017	0.1380131185149117	0.14384272030290898	-0.5634855783508029	0.1346034946285162	0.22644092866833654	-0.3265843145081981	0.2586129692662991	0.262451171025928	-0.12347134865316942	0.34463076896387296	0.26328210950435127	-0.04305565097321045	0.34262796545272717	0.27537378454003364	-0.02896724089612372	0.299531936560073	0.2891285565055654	-0.023046114071384155
54	0.9152542372881356	0.3542114823046188	0.425396383809	-0.20255759285276956	0.3447027504993234	0.6540397286826686	0.21674490070709418	0.3242152685087911	0.8676626979471792	0.5568524640983834	0.3449901197013282	0.7264794916737957	0.6397365241421099	0.40524583005681514	0.7360078957973165	0.6317267865323266	0.2652594821048524	0.9902921539608665	0.5923746795701517	0.16281423740890308	0.36717396698570803	-0.15964977380024278	0.14175139036774387	0.6098329050060487	0.22864308525344026	0.13162929419650746	0.8346250625182371	0.5858713688929358	0.2103588562297829	0.6348727992010218	0.6504324952556289	0.13451309940961684	0.7139753185796702	0.6557558382831602	0.12120587590394766	0.922851439897417	0.6155460297185436	0.28481145502380467	0.12316283009334718	-0.6574793681193458	0.3171734772018323	-0.05007530342052677	-0.8518770202635497	0.3221542998215386	-0.057360233162963924	-0.7044799483595481	0.4213875144508841	0.18300987181175873	-0.579528516723207	0.4333619449400965	0.2857980321394168	-0.374385052124732	0.3705186759341006	0.2719975063021821	-0.13356242162353613	0.3173477765046125	0.28107820873628997	-0.0293694379052826	0.3109682360320381	0.29009963745627604	-0.026706404014084202	0.3050160476700128	0.28637160968060593	-0.024717407278970756	0.13806886911828564	0.1437717641954454	-0.5634932151013347	0.13482267239662987	0.2259305219993837	-0.32649010699618114	0.25842225180305184	0.26260033302449093	-0.1235692069571298	0.34477316105412437	0.26295524834634804	-0.043231724736073174	0.34268369867849674	0.27261137879769676	-0.03562552315660723	0.29938850211739976	0.28600460252857834	-0.026276537975004875
55	0.9322033898305084	0.3531244699544909	0.4254832327293949	-0.1986635647479229	0.3412812698274618	0.6503811241886537	0.217649123852342	0.32424382055315615	0.8679810365661075	0.5567909581776956	0.3443016569739283	0.7398287175504576	0.6400604332365282	0.40475183586578484	0.7497181043744107	0.6319503624233044	0.2650983222435785	0.9854466371447015	0.5880096119918723	0.1705444316935042	0.3552177300526242	-0.15507019916748638	0.1416179871163718	0.6061810796110719	0.2246926008788437	0.13162275780947938	0.8346647210983164	0.5858215937767445	0.2104014743894407	0.634718783620864	0.6504193259886036	0.13439606158890857	0.7142154001032153	0.6557629326830797	0.11992912228682427	0.9371039240230612	0.6158548044002246	0.28483169572060857	0.1231750596989543	-0.6574995331078799	0.31708042275122206	-0.051594346419347646	-0.8548492698033162	0.32213516746219334	-0.05714234309649688	-0.7045181883154441	0.4214043367810429	0.18298391377285364	-0.579519388449177	0.4408868529103991	0.27429424083096393	-0.37116810068413497	0.3705392109412453	0.27188593877670786	-0.13341734423599955	0.3170462939822424	0.2808527300370875	-0.02928789077192234	0.31084976965582006	0.2900674938216298	-0.026620836227956798	0.3053645853358454	0.28780931242100044	-0.021517174924033815	0.13809740504729928	0.1437847538134049	-0.5635232175511762	0.1349721648155732	0.22571615946320328	-0.32645318084232977	0.25858899629265186	0.2623722696637917	-0.12347335087661593	0.3447079774257225	0.2628462446613706	-0.04324358660563113	0.3426669116906901	0.27247621689723994	-0.035593767634415595	0.29930885896419546	0.2860630257351606	-0.026327241647950184
